<svg width="26" height="19" viewBox="0 0 26 19" fill="none" xmlns="http://www.w3.org/2000/svg">
<path d="M0 2.375C0 1.74511 0.273928 1.14102 0.761522 0.695621C1.24912 0.250222 1.91044 0 2.6 0H23.4C24.0896 0 24.7509 0.250222 25.2385 0.695621C25.7261 1.14102 26 1.74511 26 2.375V16.625C26 17.2549 25.7261 17.859 25.2385 18.3044C24.7509 18.7498 24.0896 19 23.4 19H2.6C1.91044 19 1.24912 18.7498 0.761522 18.3044C0.273928 17.859 0 17.2549 0 16.625V2.375ZM4.5747 2.375L13 9.10931L21.4253 2.375H4.5747ZM23.4 3.95319L13.8567 11.5817C13.6196 11.7714 13.3152 11.876 13 11.876C12.6848 11.876 12.3804 11.7714 12.1433 11.5817L2.6 3.95319V16.625H23.4V3.95319Z" fill="#404040"/>
</svg>
