<svg width="24" height="22" viewBox="0 0 24 22" fill="none" xmlns="http://www.w3.org/2000/svg">
<path d="M12 1.90948C10.6038 0.609117 8.77392 -0.0737425 6.90015 0.00632306C5.02637 0.0863886 3.25672 0.923052 1.96804 2.33814C0.67937 3.75323 -0.026497 5.63493 0.000761073 7.58252C0.0280191 9.53012 0.786248 11.3897 2.11398 12.7653L10.3042 21.2706C10.754 21.7376 11.364 22 12 22C12.636 22 13.246 21.7376 13.6958 21.2706L21.886 12.7653C23.2138 11.3897 23.972 9.53012 23.9992 7.58252C24.0265 5.63493 23.3206 3.75323 22.032 2.33814C20.7433 0.923052 18.9736 0.0863886 17.0999 0.00632306C15.2261 -0.0737425 13.3962 0.609117 12 1.90948ZM10.5944 3.95733L11.1521 4.53531C11.377 4.76883 11.682 4.90001 12 4.90001C12.318 4.90001 12.623 4.76883 12.8479 4.53531L13.4056 3.95733C13.8481 3.48144 14.3775 3.10185 14.9628 2.84072C15.5481 2.57959 16.1776 2.44214 16.8146 2.43639C17.4515 2.43064 18.0832 2.55671 18.6728 2.80724C19.2624 3.05777 19.798 3.42774 20.2484 3.89557C20.6989 4.3634 21.0551 4.91971 21.2963 5.53205C21.5375 6.1444 21.6589 6.8005 21.6534 7.46209C21.6478 8.12367 21.5155 8.77749 21.2641 9.38538C21.0126 9.99328 20.6472 10.5431 20.189 11.0027L12 19.5092L3.81102 11.0027C2.93716 10.063 2.45362 8.80437 2.46455 7.49795C2.47548 6.19153 2.98 4.94183 3.86946 4.01802C4.75892 3.09421 5.96214 2.57019 7.21997 2.55884C8.47781 2.54749 9.68961 3.04971 10.5944 3.95733Z" fill="white"/>
</svg>
