<svg width="18" height="23" viewBox="0 0 18 23" fill="none" xmlns="http://www.w3.org/2000/svg">
<path d="M9 0C4.05 0 0 4.14 0 9.2C0 15.41 7.875 22.425 8.2125 22.77C8.4375 22.885 8.775 23 9 23C9.225 23 9.5625 22.885 9.7875 22.77C10.125 22.425 18 15.41 18 9.2C18 4.14 13.95 0 9 0ZM9 20.355C6.6375 18.055 2.25 13.11 2.25 9.2C2.25 5.405 5.2875 2.3 9 2.3C12.7125 2.3 15.75 5.405 15.75 9.2C15.75 12.995 11.3625 18.055 9 20.355ZM9 4.6C6.525 4.6 4.5 6.67 4.5 9.2C4.5 11.73 6.525 13.8 9 13.8C11.475 13.8 13.5 11.73 13.5 9.2C13.5 6.67 11.475 4.6 9 4.6ZM9 11.5C7.7625 11.5 6.75 10.465 6.75 9.2C6.75 7.935 7.7625 6.9 9 6.9C10.2375 6.9 11.25 7.935 11.25 9.2C11.25 10.465 10.2375 11.5 9 11.5Z" fill="white"/>
</svg>
