<svg width="32" height="30" viewBox="0 0 32 30" fill="none" xmlns="http://www.w3.org/2000/svg">
<path d="M1.05119 8.49713L1.05118 8.49713C1.0017 8.84146 0.986346 9.43988 1.01287 10.0963C1.03923 10.7484 1.10327 11.3685 1.18363 11.7509L1.05119 8.49713ZM1.05119 8.49713L1.05183 8.49255M1.05119 8.49713L1.05183 8.49255M1.05183 8.49255C1.32371 6.53634 2.11389 4.89776 3.43559 3.53515C4.09539 2.85492 4.68219 2.41417 5.48607 1.97937C6.55989 1.40299 7.59127 1.10068 8.85119 1.00754C9.32238 0.976025 10.342 1.04434 10.9222 1.15292C12.3315 1.43431 13.8261 2.1936 14.8337 3.1357C14.9614 3.25654 15.0895 3.37061 15.1964 3.45915C15.2485 3.50228 15.3069 3.54884 15.3635 3.58922C15.3898 3.60801 15.4333 3.63806 15.4854 3.66769C15.5106 3.68207 15.5562 3.70685 15.6147 3.73071L15.616 3.73124C15.6526 3.74615 15.8011 3.80668 16 3.80668C16.1989 3.80668 16.3474 3.74615 16.384 3.73124L16.3853 3.73072C16.4438 3.70686 16.4894 3.68208 16.5146 3.66769C16.5667 3.63807 16.6102 3.60802 16.6365 3.58922C16.6931 3.54884 16.7515 3.50228 16.8036 3.45915C16.9106 3.3705 17.0389 3.25628 17.1667 3.13529C18.179 2.18838 19.639 1.4446 21.1207 1.13771C21.789 1.0013 23.1735 0.971013 23.8763 1.08163L23.8781 1.0819C25.6452 1.35689 27.274 2.20479 28.5644 3.53515C29.8861 4.89776 30.6763 6.53634 30.9482 8.49255L30.9488 8.49713M1.05183 8.49255L30.9488 8.49713M30.9488 8.49713C30.9983 8.84146 31.0137 9.43988 30.9871 10.0962C30.9608 10.7484 30.8967 11.3685 30.8164 11.7509C30.2312 14.5281 28.7888 17.1803 26.0927 20.2547C23.7119 22.9658 20.6682 25.5801 16.6726 28.3308C16.6719 28.3312 16.6712 28.3317 16.6706 28.3321L16.0014 28.7885L15.3351 28.3317C15.3348 28.3316 15.3346 28.3314 15.3344 28.3312C11.3322 25.5805 8.28826 22.966 5.90732 20.2547M30.9488 8.49713L5.90732 20.2547M5.90732 20.2547C3.21136 17.1805 1.76888 14.5284 1.18371 11.7513L5.90732 20.2547Z" stroke="white" stroke-width="2"/>
</svg>
