<svg width="41" height="21" viewBox="0 0 41 21" fill="none" xmlns="http://www.w3.org/2000/svg">
<path d="M10.8974 0.223683C11.2257 0.500809 11.3217 0.818688 11.2096 1.21808C11.1536 1.41369 10.1047 2.5385 7.23022 5.48092L3.32286 9.48294L21.8588 9.5237C36.1511 9.5563 40.4348 9.5889 40.5629 9.66226C40.9712 9.89863 41.1394 10.6648 40.8671 11.056C40.5549 11.5125 41.868 11.4799 21.7627 11.4799H3.24279L7.2142 15.5308C9.74438 18.1146 11.2096 19.6632 11.2417 19.8018C11.3057 20.0952 11.1616 20.5517 10.9374 20.7636C10.6892 21.0081 10.1848 21.0733 9.8805 20.9103C9.75239 20.8369 7.47843 18.571 4.82014 15.865L0 10.9501V10.0535L9.83246 0.0443665L10.2168 0.0117635C10.5611 -0.0208395 10.6412 0.00361276 10.8974 0.223683Z" fill="#111111"/>
</svg>
