<svg width="24" height="26" viewBox="0 0 24 26" fill="none" xmlns="http://www.w3.org/2000/svg">
<path d="M2.54261 2.55914H7.84584L9.55492 7.18864L6.80881 9.17198C6.6471 9.28886 6.51452 9.44719 6.42283 9.6329C6.33114 9.81861 6.28319 10.026 6.28322 10.2366C6.28676 10.3569 6.28322 10.2379 6.28322 10.2379V10.2647C6.28383 10.322 6.28619 10.3791 6.2903 10.4362C6.29739 10.5411 6.3092 10.6832 6.33164 10.8585C6.3777 11.2039 6.46629 11.6799 6.63873 12.2404C6.98598 13.3664 7.66631 14.8238 8.99152 16.2595C10.3167 17.6952 11.662 18.4322 12.7002 18.8084C13.2187 18.9953 13.6569 19.0899 13.9782 19.1411C14.1595 19.1685 14.3421 19.1856 14.5251 19.1923L14.5404 19.1936H14.5499C14.5499 19.1936 14.6822 19.1859 14.551 19.1936C14.7703 19.1935 14.9853 19.1272 15.1718 19.0022C15.3583 18.8773 15.5089 18.6985 15.607 18.486L16.3983 16.7714L21.6378 17.7182V23.246C19.1444 23.6363 12.4097 24.0214 7.11827 18.2889C1.82685 12.5564 2.18119 5.25904 2.54261 2.55914ZM8.73168 10.8585L10.866 9.31785C11.3168 8.99203 11.6506 8.50815 11.8112 7.94738C11.9719 7.3866 11.9496 6.78304 11.7483 6.23792L10.0392 1.60842C9.86379 1.13358 9.5611 0.72656 9.17015 0.439868C8.7792 0.153177 8.31793 -3.42842e-05 7.84584 5.75452e-09H2.48119C1.40756 5.75452e-09 0.3977 0.80741 0.221713 2.06907C-0.179868 4.93787 -0.724363 13.4112 5.44816 20.0982C11.6207 26.7853 19.4421 26.1941 22.0901 25.7604C23.2547 25.5684 24 24.4757 24 23.3125V17.7182C24.0001 17.1124 23.8018 16.5263 23.4404 16.064C23.079 15.6017 22.5779 15.2933 22.0264 15.1936L16.7869 14.248C16.2886 14.1579 15.7767 14.2433 15.3265 14.4915C14.8762 14.7398 14.5113 15.1379 14.2853 15.6274L13.8766 16.5142C13.7321 16.4756 13.5891 16.4308 13.4479 16.3798C12.7156 16.1162 11.6986 15.5737 10.6616 14.4502C9.6246 13.3267 9.12381 12.225 8.8805 11.4304C8.82241 11.2426 8.77313 11.0517 8.73286 10.8585H8.73168Z" fill="#404040"/>
</svg>
