<svg width="41" height="21" viewBox="0 0 41 21" fill="none" xmlns="http://www.w3.org/2000/svg">
<path d="M30.1026 0.223683C29.7743 0.500809 29.6783 0.818688 29.7904 1.21808C29.8464 1.41369 30.8953 2.5385 33.7698 5.48092L37.6771 9.48294L19.1412 9.5237C4.84891 9.5563 0.565228 9.5889 0.437118 9.66226C0.0287671 9.89863 -0.139378 10.6648 0.132857 11.056C0.445125 11.5125 -0.868004 11.4799 19.2373 11.4799H37.7572L33.7858 15.5308C31.2556 18.1146 29.7904 19.6632 29.7583 19.8018C29.6943 20.0952 29.8384 20.5517 30.0626 20.7636C30.3108 21.0081 30.8152 21.0733 31.1195 20.9103C31.2476 20.8369 33.5216 18.571 36.1799 15.865L41 10.9501V10.0535L31.1675 0.0443665L30.7832 0.0117635C30.4389 -0.0208395 30.3588 0.00361276 30.1026 0.223683Z" fill="#111111"/>
</svg>
